<svg width="40" height="40" viewBox="0 0 40 40" fill="none" xmlns="http://www.w3.org/2000/svg">
  <defs>
    <linearGradient id="logoGradient" x1="0%" y1="0%" x2="100%" y2="100%">
      <stop offset="0%" style="stop-color:#fbbf24;stop-opacity:1" />
      <stop offset="25%" style="stop-color:#34d399;stop-opacity:1" />
      <stop offset="50%" style="stop-color:#3b82f6;stop-opacity:1" />
      <stop offset="75%" style="stop-color:#8b5cf6;stop-opacity:1" />
      <stop offset="100%" style="stop-color:#ec4899;stop-opacity:1" />
    </linearGradient>
    <filter id="glow">
      <feGaussianBlur stdDeviation="1" result="coloredBlur"/>
      <feMerge> 
        <feMergeNode in="coloredBlur"/>
        <feMergeNode in="SourceGraphic"/>
      </feMerge>
    </filter>
  </defs>
  
  <!-- Background circle -->
  <circle cx="20" cy="20" r="20" fill="#000000"/>
  
  <!-- Main C letter with gradient -->
  <path d="M20 8C15.5817 8 12 11.5817 12 16C12 20.4183 15.5817 24 20 24C21.6569 24 23.1569 23.3284 24.2426 22.2426C24.8284 21.6569 25 21.1213 25 20.5C25 19.8787 24.8284 19.3431 24.2426 18.7574C23.6569 18.1716 23.1213 18 22.5 18C21.8787 18 21.3431 18.1716 20.7574 18.7574C20.1716 19.3431 20 19.8787 20 20.5C20 21.1213 20.1716 21.6569 20.7574 22.2426C21.3431 22.8284 21.8787 23 22.5 23C23.1213 23 23.6569 22.8284 24.2426 22.2426C25.3284 21.1569 26 19.6569 26 18C26 16.3431 25.3284 14.8431 24.2426 13.7574C23.1569 12.6716 21.6569 12 20 12C18.3431 12 16.8431 12.6716 15.7574 13.7574C14.6716 14.8431 14 16.3431 14 18C14 19.6569 14.6716 21.1569 15.7574 22.2426C16.8431 23.3284 18.3431 24 20 24Z" 
        fill="url(#logoGradient)" 
        filter="url(#glow)"/>
</svg>
